HIERARCHY
ROOT pelvis
{
  OFFSET 0 100 0
  CHANNELS 6 Xposition Yposition Zposition Zrotation Xrotation Yrotation
  JOINT pelvis_right_femur
  {
    OFFSET -10.78128 -3.44521 -0.5502486
    CHANNELS 3 Zrotation Xrotation Yrotation
    JOINT right_femur_tibia
    {
      OFFSET -0.8047443 -44.0398 -0.1307829
      CHANNELS 3 Zrotation Xrotation Yrotation
      JOINT right_tibia_foot
      {
        OFFSET 3.006224 -47.83518 -5
        CHANNELS 3 Zrotation Xrotation Yrotation
        End Site
        {
          OFFSET 0 -5 15
        }
      }
    }
  }
  JOINT pelvis_left_femur
  {
    OFFSET 10.78128 -3.44521 -0.5502486
    CHANNELS 3 Zrotation Xrotation Yrotation
    JOINT left_femur_tibia
    {
      OFFSET 0.8047443 -44.0398 -0.1307829
      CHANNELS 3 Zrotation Xrotation Yrotation
      JOINT left_tibia_foot
      {
        OFFSET -4.370144 -48.10324 -4.275266
        CHANNELS 3 Zrotation Xrotation Yrotation
        End Site
        {
          OFFSET 0 -5 15
        }
      }
    }
  }
  JOINT pelvis_spine1
  {
    OFFSET 0 6.468898 -3.129235
    CHANNELS 3 Zrotation Xrotation Yrotation
    JOINT spine1
    {
      OFFSET 0 23.15396 4.99043
      CHANNELS 3 Zrotation Xrotation Yrotation
      JOINT spine2
      {
        OFFSET 0 20.79997 -5.064912
        CHANNELS 3 Zrotation Xrotation Yrotation
        JOINT neck
        {
          OFFSET 0 14.38658 9.616178
          CHANNELS 3 Zrotation Xrotation Yrotation
          End Site
          {
            OFFSET 0 20 0
          }
        }
      }
      JOINT right_manubrium
      {
        OFFSET -5.722621 16.35077 3.967754
        CHANNELS 3 Zrotation Xrotation Yrotation
        JOINT right_clavicle
        {
          OFFSET -13.16364 1.694482 -4.693211
          CHANNELS 3 Zrotation Xrotation Yrotation
          JOINT right_humerus
          {
            OFFSET -28.5034 -0.3100689 -2.792744
            CHANNELS 3 Zrotation Xrotation Yrotation
            JOINT right_radius
            {
              OFFSET -25.15693 0.02248979 -1.271978
              CHANNELS 3 Zrotation Xrotation Yrotation
              End Site
              {
                OFFSET -15 0 0
              }
            }
          }
        }
      }
      JOINT left_manubrium
      {
        OFFSET 5.722621 16.35077 3.967754
        CHANNELS 3 Zrotation Xrotation Yrotation
        JOINT left_clavicle
        {
          OFFSET 13.16364 1.694482 -4.693211
          CHANNELS 3 Zrotation Xrotation Yrotation
          JOINT left_humerus
          {
            OFFSET 29.39168 -1.063119 -2.237045
            CHANNELS 3 Zrotation Xrotation Yrotation
            JOINT left_radius
            {
              OFFSET 24.59957 -0.9528479 0.9047498
              CHANNELS 3 Zrotation Xrotation Yrotation
              End Site
              {
                OFFSET 15 -0 -0
              }
            }
          }
        }
      }
    }
  }
}
MOTION
Frames: 15
Frame Time: 0.0416666666667
340.8362 105.2367 3026.44 0.7719052 -6.228675 5.941091 4.99057 10.74456 2.366085 -0 8.109631 -0 -5.797848 -13.22525 -1.534119 0.8655466 -18.91424 -4.511498 -0 32.21063 -0 -3.380238 -5.703456 18.04259 -0.3456174 -1.726597 8.074957 -0.3394361 14.29933 -4.888208 0.689166 20.86357 4.815587 3.060893 -20.18248 4.836371 -0.6249716 -26.27752 12.72794 86.65506 23.63219 -10.13887 -0 0 22.40499 -24.62567 11.00269 13.49496 3.877109 -21.47764 -6.045111 -92.83941 11.19055 30.24813 0 0 -9.60872 9.302192 11.36219 0.9837805
342.0685 104.1956 3032.35 0.8095065 -6.097431 5.24874 4.401832 13.70399 1.740878 -0 8.238547 -0 -5.60238 -13.66149 -0.758018 1.388503 -21.84798 -4.093341 -0 23.90466 -0 -2.845613 -6.260181 18.62035 -0.3609166 -1.685506 8.640305 -0.6221687 14.29464 -4.369673 0.6885584 20.83294 4.715495 3.035223 -20.02294 4.719822 -0.560376 -27.06518 12.77369 85.53763 23.58414 -8.360111 -0 0 24.21462 -25.22124 11.02798 14.17818 3.62406 -20.65121 -5.788339 -94.03137 11.11208 32.49401 0 0 -7.424764 8.455382 11.2368 2.083076
343.4079 102.922 3038.331 0.9175853 -6.157695 4.701473 3.759811 15.73806 1.434245 -0 10.27933 -0 -5.22016 -13.33042 -0.3184811 1.486314 -23.46708 -4.019863 -0 17.97242 -0 -2.571631 -6.794723 19.05595 -0.3876358 -1.634715 9.078771 -0.8493636 14.24842 -3.960891 0.6963238 20.80942 4.655639 3.01293 -19.8611 4.654816 -0.4669822 -27.61267 12.80106 84.62426 23.58267 -6.977629 -0 0 25.62022 -25.72704 11.10978 14.73134 3.429763 -19.96017 -5.555861 -94.96096 11.15279 34.17741 0 0 -5.778948 7.647344 11.07544 3.138545
344.8212 101.687 3044.41 1.103996 -6.473202 4.332102 3.039306 16.81218 1.461927 -0 14.46574 -0 -4.620504 -12.07999 -0.2831793 1.114842 -23.65162 -4.284628 -0 14.96544 -0 -2.658117 -7.246947 19.28657 -0.4239093 -1.578259 9.343722 -0.9970664 14.16382 -3.705108 0.7122612 20.7955 4.643727 2.995963 -19.71158 4.650059 -0.3521662 -27.85713 12.80562 83.99889 23.64944 -6.137378 -0 0 26.4724 -26.09252 11.24764 15.09783 3.316255 -19.47372 -5.371556 -95.52332 11.34887 35.12412 0 0 -4.8499 6.952945 10.89512 4.052647
346.2848 100.7358 3050.624 1.364917 -7.017551 4.176021 2.231559 16.97844 1.73919 -0 20.56161 -0 -3.810224 -9.941727 -0.628196 0.3393314 -22.49607 -4.813273 -0 14.4231 -0 -3.084074 -7.664883 19.30193 -0.4657907 -1.520458 9.429072 -1.061132 14.05159 -3.608638 0.734801 20.79201 4.676191 2.984585 -19.58369 4.700679 -0.2286632 -27.80503 12.78749 83.68235 23.78251 -5.858432 -0 0 26.75138 -26.30313 11.4287 15.2659 3.28649 -19.21148 -5.247333 -95.69847 11.69136 35.32463 0 0 -4.648461 6.415488 10.71545 4.766614
347.7851 100.2432 3056.992 1.686381 -7.684961 4.266122 1.361367 16.20083 2.146457 -0 28.01157 -0 -2.837259 -7.102891 -1.285527 -0.7425999 -20.12018 -5.54959 -0 15.4007 -0 -3.727201 -8.173496 19.13479 -0.5091745 -1.465179 9.352016 -1.048654 13.92397 -3.656992 0.7616862 20.79823 4.744535 2.978453 -19.48276 4.795606 -0.107932 -27.49883 12.74981 83.65887 23.96626 -6.088902 -0 0 26.51163 -26.36521 11.63571 15.24964 3.332382 -19.16267 -5.185272 -95.51701 12.14177 34.85793 0 0 -5.093761 6.051996 10.55308 5.255496
349.3122 100.2963 3063.484 2.042865 -8.320482 4.622638 0.4952038 14.30105 2.570693 -0 36.05708 -0 -1.791343 -3.859828 -2.173542 -2.036772 -16.57848 -6.481944 -0 16.95323 -0 -4.410895 -8.921263 18.83653 -0.5509805 -1.416298 9.130132 -0.9660786 13.79065 -3.836579 0.7903175 20.81226 4.842081 2.978021 -19.41493 4.925155 0.004156099 -26.97825 12.69672 83.91118 24.18719 -6.778874 -0 0 25.80836 -26.28262 11.85378 15.06225 3.445808 -19.31523 -5.184031 -95.01301 12.65656 33.79963 0 0 -6.109257 5.872744 10.42177 5.504532
350.8519 100.8779 3070.01 2.383521 -8.729672 5.232707 -0.2440673 11.082 2.920498 -0 43.59593 -0 -0.8351422 -0.6874559 -3.167508 -3.416932 -11.99554 -7.615297 -0 18.29354 -0 -4.91373 -10.01674 18.48463 -0.5892562 -1.378311 8.775773 -0.8158651 13.65864 -4.140512 0.8175614 20.83081 4.965524 2.985073 -19.38939 5.082476 0.1080812 -26.27175 12.63312 84.42871 24.43957 -7.89876 -0 0 24.67923 -26.0498 12.07125 14.70883 3.621422 -19.66407 -5.240972 -94.21312 13.19448 32.20229 0 0 -7.646381 5.889092 10.33338 5.499638
352.3785 101.8452 3076.418 2.619905 -8.707989 6.027275 -0.6819949 6.547591 3.137856 -0 49.06195 -0 -0.2276244 1.729311 -4.059494 -4.683523 -6.777015 -8.921014 -0 18.86076 -0 -4.995974 -11.4547 18.18689 -0.6228558 -1.356215 8.304396 -0.6006121 13.53383 -4.560919 0.8396229 20.84901 5.112561 3.002262 -19.41654 5.260839 0.2090403 -25.41048 12.56519 85.19355 24.72138 -9.41262 -0 0 23.1711 -25.6607 12.27754 14.19646 3.852654 -20.2005 -5.349978 -93.15522 13.71221 30.13195 0 0 -9.650152 6.106772 10.29648 5.235884
353.8537 102.9384 3082.552 2.649074 -8.139273 6.887604 -0.6625866 1.050299 3.18639 -0 50.8088 -0 -0.2345559 2.77196 -4.614131 -5.594497 -1.611525 -10.26764 -0 18.42463 -0 -4.525299 -13.08424 18.01108 -0.6512304 -1.354223 7.744618 -0.3291173 13.42169 -5.07816 0.8526648 20.86115 5.278631 3.031837 -19.50329 5.450892 0.3137294 -24.44393 12.50024 86.16192 25.02759 -11.24296 -0 0 21.37287 -25.12327 12.46143 13.54834 4.126704 -20.89682 -5.498681 -91.91054 14.16452 27.71143 0 0 -12.01494 6.513219 10.31325 4.732988
355.2381 103.852 3088.345 2.418488 -7.099037 7.697728 -0.166335 -4.83468 3.010454 -0 48.01814 -0 -0.9249302 2.368316 -4.736202 -5.988512 2.884623 -11.39545 -0 17.09986 -0 -3.626297 -14.69379 17.87595 -0.6745286 -1.373792 7.13568 -0.01730869 13.32578 -5.660031 0.854356 20.86304 5.456335 3.074238 -19.64878 5.64199 0.4267096 -23.43468 12.44425 87.26616 25.34759 -13.27241 -0 0 19.4091 -24.46405 12.61245 12.8047 4.425422 -21.70481 -5.669938 -90.57635 14.51776 25.10995 0 0 -14.58812 7.073673 10.37813 4.038897
356.505 104.3389 3093.862 1.9682 -5.823898 8.393111 0.6517288 -10.61597 2.556346 -0 41.3085 -0 -2.095379 1.07222 -4.544718 -5.890313 6.53173 -12.04792 -0 15.27362 -0 -2.63085 -16.13923 17.58651 -0.6936986 -1.412549 6.511569 0.3177346 13.24529 -6.273935 0.8451763 20.85429 5.638289 3.127658 -19.84415 5.826938 0.5484447 -22.43267 12.39897 88.44209 25.66757 -15.3897 -0 0 17.3902 -23.7174 12.7245 12.00684 4.732589 -22.57366 -5.847999 -89.23739 14.76353 22.47379 0 0 -17.22936 7.743115 10.47995 3.213077
357.6439 104.2803 3099.248 1.404159 -4.580579 8.960328 1.564492 -15.99838 1.851424 -0 32.38413 -0 -3.423121 -0.3688639 -4.252375 -5.474366 9.523115 -12.13588 -0 13.55715 -0 -1.86748 -17.35328 16.99704 -0.7100861 -1.465172 5.896213 0.6605489 13.17603 -6.89219 0.8279229 20.83787 5.818285 3.188584 -20.07484 6.002559 0.6757862 -21.46884 12.36243 89.63895 25.97247 -17.50673 -0 0 15.39637 -22.91941 12.79662 11.19039 5.036298 -23.45883 -6.021118 -87.95183 14.91417 19.90329 0 0 -19.83219 8.474827 10.60514 2.315165
358.6598 103.6985 3104.67 0.849244 -3.589622 9.413378 2.386663 -20.72937 1.012591 -0 23.23789 -0 -4.618332 -1.376138 -4.034561 -4.950765 12.08983 -11.72493 -0 12.69437 -0 -1.550342 -18.26356 16.0836 -0.7246508 -1.525146 5.321161 0.9908663 13.11515 -7.478954 0.8058837 20.81725 5.987708 3.252245 -20.32188 6.163464 0.8033464 -20.58542 12.33306 90.7859 26.24886 -19.50664 -0 0 13.5325 -22.1191 12.82991 10.40264 5.321108 -24.30389 -6.176479 -86.78779 14.99024 17.5292 0 0 -22.25798 9.210413 10.73986 1.41837
359.5753 102.7396 3110.282 0.4144687 -3.013602 9.775954 3.019665 -24.44551 0.2115497 -0 15.64028 -0 -5.469466 -1.648556 -3.992252 -4.492181 14.26371 -10.94956 -0 13.41091 -0 -1.770402 -18.7436 14.93406 -0.7374302 -1.586032 4.836504 1.279922 13.06446 -7.982276 0.7816631 20.79471 6.133246 3.312889 -20.56305 6.298097 0.924091 -19.8551 12.31225 91.76992 26.49052 -21.21162 -0 0 11.96219 -21.38454 12.82583 9.71296 5.563223 -25.02955 -6.297399 -85.84483 15.01772 15.56214 0 0 -24.29461 9.874544 10.87265 0.6166032
